<?xml version="1.0" standalone="no"?>
<!DOCTYPE svg PUBLIC "-//W3C//DTD SVG 20010904//EN"
 "http://www.w3.org/TR/2001/REC-SVG-20010904/DTD/svg10.dtd">
<svg version="1.0" xmlns="http://www.w3.org/2000/svg"
 width="798.000000pt" height="672.000000pt" viewBox="0 0 798.000000 672.000000"
 preserveAspectRatio="xMidYMid meet">
<metadata>
Created by potrace 1.16, written by Peter Selinger 2001-2019
</metadata>
<g transform="translate(0.000000,672.000000) scale(0.100000,-0.100000)"
fill="#000000" stroke="none">
<path d="M3465 6413 c-22 -8 -47 -20 -56 -28 -9 -9 -36 -15 -70 -15 -95 0
-211 -70 -238 -143 -6 -16 -11 -58 -12 -95 0 -37 -4 -76 -8 -87 -7 -15 -1 -27
23 -51 17 -17 46 -49 64 -72 47 -60 83 -76 172 -76 88 -1 173 28 248 84 68 52
92 92 92 156 0 33 -5 54 -12 57 -7 2 -49 -8 -93 -23 l-80 -27 3 -43 c3 -32 -1
-47 -18 -65 -28 -30 -66 -39 -100 -25 -35 15 -53 48 -53 102 0 31 -6 51 -23
71 -34 41 -33 99 2 126 47 37 93 21 130 -45 10 -17 15 -18 58 -6 26 7 63 19
81 26 l34 15 -30 90 c-34 101 -36 102 -114 74z"/>
<path d="M4115 6274 c-52 -19 -107 -73 -135 -134 l-23 -49 23 -48 c44 -96 101
-132 220 -140 143 -10 231 35 289 148 l31 61 -42 61 c-62 88 -121 117 -237
116 -49 0 -103 -7 -126 -15z m166 -95 c15 -15 19 -27 14 -42 -9 -28 -9 -46 0
-74 5 -16 0 -29 -19 -48 -32 -32 -62 -30 -88 6 -16 22 -17 29 -7 52 10 21 10
30 1 39 -17 17 -15 48 5 70 22 24 68 23 94 -3z"/>
<path d="M5080 6214 c-12 -31 0 -51 33 -56 14 -2 23 -11 25 -27 6 -38 -10 -42
-62 -16 -91 46 -209 24 -250 -46 -10 -18 -26 -39 -36 -49 -25 -25 -11 -137 23
-189 43 -65 134 -96 225 -76 25 5 32 3 32 -9 0 -8 8 -17 18 -19 100 -28 193
-49 197 -45 3 2 8 19 11 36 6 27 3 33 -19 41 -14 6 -28 19 -31 29 -7 21 7 66
23 76 5 4 7 22 4 40 -3 21 3 61 16 102 30 100 43 166 34 175 -9 8 -197 59
-219 59 -8 0 -19 -12 -24 -26z m-20 -184 c34 -18 43 -46 26 -83 -8 -17 -15
-39 -14 -47 4 -56 -23 -78 -76 -60 -41 13 -52 44 -29 80 10 14 16 40 14 58 -4
54 31 78 79 52z"/>
<path d="M2598 5967 c-24 -18 -61 -38 -84 -45 -88 -26 -164 -112 -164 -186 0
-32 20 -74 49 -100 17 -15 31 -18 78 -13 32 3 51 2 43 -1 -8 -3 -26 -16 -40
-29 l-25 -23 21 -38 c30 -51 54 -52 102 -4 27 27 52 42 78 46 47 8 128 65 154
109 30 49 27 115 -8 156 -25 30 -34 34 -75 34 -50 -1 -162 -48 -187 -78 -14
-17 -46 -20 -54 -6 -18 28 45 73 97 69 20 -1 47 7 69 20 58 36 61 44 32 85
-13 20 -29 37 -34 37 -4 0 -28 -15 -52 -33z"/>
<path d="M4622 5658 c-40 -79 -72 -148 -72 -154 0 -6 24 -18 53 -27 89 -29
172 -79 172 -104 0 -14 14 -31 40 -48 54 -37 138 -118 191 -188 24 -31 44 -60
44 -63 0 -17 44 -64 60 -64 24 0 56 -70 86 -189 84 -332 -51 -699 -401 -1086
-129 -143 -269 -276 -502 -477 -75 -64 -330 -263 -453 -353 -74 -54 -157 -115
-185 -135 -45 -33 -180 -128 -245 -172 -14 -10 -59 -42 -100 -73 -70 -51 -191
-134 -285 -194 -22 -14 -56 -38 -75 -52 -19 -14 -98 -71 -175 -125 -179 -126
-270 -196 -414 -315 -126 -105 -288 -265 -278 -276 4 -3 31 18 60 48 129 130
425 345 772 559 83 51 177 109 210 130 33 20 111 69 173 108 62 40 117 72 122
72 5 0 10 3 12 8 7 17 235 162 254 162 5 0 401 264 484 323 185 130 459 343
575 447 180 160 263 244 365 371 123 150 233 332 279 459 7 19 17 44 21 55 5
11 19 61 32 110 20 77 23 115 23 260 0 172 -7 221 -46 336 -22 63 -24 90 -8
106 8 8 3 26 -18 65 -97 174 -176 280 -290 389 -67 64 -85 76 -106 72 -19 -4
-37 3 -64 24 -52 40 -214 133 -232 133 -4 0 -40 -64 -79 -142z m271 0 c32 -22
61 -46 64 -54 4 -12 -51 -86 -127 -170 l-19 -20 -110 54 -111 55 52 101 c75
145 68 141 136 104 31 -17 83 -49 115 -70z"/>
<path d="M5615 5739 c-22 -10 -53 -29 -68 -42 -26 -20 -29 -29 -29 -87 -2
-112 53 -190 178 -251 59 -29 78 -34 145 -34 58 0 82 4 94 16 15 14 12 18 -24
42 -22 15 -43 27 -47 27 -3 0 -19 9 -35 21 -26 18 -34 19 -58 9 -54 -22 -120
34 -101 85 5 11 12 19 17 18 5 -1 68 -36 139 -77 72 -42 136 -76 142 -76 20 0
42 57 42 108 0 122 -161 263 -300 261 -33 0 -71 -8 -95 -20z"/>
<path d="M1772 5547 c-45 -45 -82 -87 -82 -93 0 -6 9 -19 20 -29 19 -18 21
-17 55 1 l35 19 70 -70 c38 -38 70 -77 70 -86 0 -10 11 -20 25 -23 14 -4 32
-18 41 -31 15 -24 15 -27 0 -44 -23 -25 -20 -48 10 -67 l25 -17 100 99 c54 54
99 103 99 108 0 5 -10 20 -21 32 -17 18 -26 21 -40 13 -26 -14 -58 5 -71 42
-6 16 -17 29 -27 29 -9 0 -61 45 -116 100 -55 55 -102 100 -105 100 -3 0 -42
-37 -88 -83z"/>
<path d="M6257 5272 c-21 -23 -21 -27 3 -60 45 -62 40 -165 -6 -136 -13 8 -25
7 -47 -4 -32 -16 -81 -10 -107 13 -15 14 -19 13 -38 -4 -12 -10 -22 -24 -22
-31 0 -7 32 -46 72 -86 l72 -74 23 22 c13 12 21 28 18 35 -3 8 6 18 21 23 38
15 52 12 59 -10 10 -32 -4 -60 -30 -60 -13 0 -29 -10 -39 -25 -16 -25 -16 -25
99 -142 l115 -118 26 27 27 26 -22 44 c-11 24 -21 63 -21 87 l0 42 38 -1 c20
0 52 2 70 6 22 4 40 1 58 -11 23 -15 27 -15 50 0 13 8 24 23 24 32 0 9 -33 50
-74 91 l-74 74 -27 -18 c-20 -13 -25 -23 -21 -40 5 -19 1 -25 -18 -30 -34 -8
-46 2 -46 37 0 22 5 29 19 29 10 0 26 12 36 26 17 26 16 27 -21 68 -105 112
-180 186 -190 186 -6 0 -18 -8 -27 -18z"/>
<path d="M1483 5031 c-87 -56 -135 -125 -153 -221 -11 -61 5 -118 52 -185 27
-38 37 -44 78 -50 87 -12 171 28 226 108 54 77 74 134 74 212 0 59 -14 115
-29 115 -7 0 -23 -25 -63 -98 -25 -45 -28 -58 -20 -82 21 -58 -55 -137 -94
-98 -12 11 -5 29 46 117 33 56 60 106 60 109 0 4 9 18 20 32 26 33 25 37 -12
60 -55 33 -114 27 -185 -19z"/>
<path d="M5045 4532 c-6 -4 -17 -32 -24 -62 -15 -58 -73 -203 -103 -257 -10
-18 -28 -50 -39 -70 -149 -263 -572 -691 -1059 -1072 -58 -45 -112 -87 -120
-94 -8 -7 -51 -39 -95 -72 -44 -33 -82 -62 -85 -65 -3 -3 -21 -17 -40 -30 -39
-27 -94 -77 -70 -64 28 16 205 137 210 144 3 4 34 26 70 50 60 41 339 247 350
260 3 3 50 41 105 85 106 84 112 89 275 237 389 353 587 645 631 931 11 72 10
90 -6 79z"/>
<path d="M6573 4377 c-24 -11 -43 -27 -43 -34 0 -18 50 -116 63 -125 14 -9
107 41 107 57 0 21 -61 125 -73 124 -7 0 -31 -10 -54 -22z"/>
<path d="M1046 4343 c-25 -80 -35 -137 -26 -148 7 -9 5 -16 -6 -26 -26 -22
-54 -90 -54 -134 0 -74 16 -107 81 -166 l61 -55 66 13 c114 24 171 86 180 198
5 73 18 81 52 38 27 -34 22 -90 -14 -169 -18 -40 -22 -56 -13 -61 29 -19 60
-33 73 -33 7 0 30 34 50 76 33 69 37 86 37 158 2 147 -61 221 -213 256 -30 7
-65 19 -77 26 -13 8 -33 12 -45 9 -20 -5 -79 9 -130 30 -11 4 -18 1 -22 -12z
m102 -219 c13 -9 32 -14 44 -11 11 3 31 2 44 -3 20 -8 24 -17 24 -48 0 -21 -5
-43 -12 -50 -16 -16 -59 -15 -82 3 -11 8 -28 13 -38 9 -30 -9 -58 13 -58 48 0
32 24 68 44 68 6 0 22 -7 34 -16z"/>
<path d="M7140 4020 c-22 -5 -25 -11 -22 -46 4 -54 -25 -75 -108 -75 -40 -1
-60 -5 -64 -14 -7 -18 -70 -45 -106 -45 -27 0 -60 26 -60 48 0 15 -52 16 -67
1 -8 -8 -7 -20 2 -43 8 -18 23 -68 35 -112 11 -43 30 -109 41 -145 20 -63 22
-65 50 -61 36 5 44 16 44 67 0 39 1 40 55 58 40 12 62 15 82 8 23 -8 28 -6 33
9 7 21 97 55 121 46 8 -3 20 -19 25 -36 12 -33 42 -40 73 -17 18 13 16 21 -27
158 -25 79 -48 154 -52 166 -8 30 -26 41 -55 33z"/>
<path d="M5562 3968 c-7 -7 -12 -36 -12 -66 0 -69 38 -147 108 -224 109 -118
181 -118 182 0 0 64 -24 118 -88 195 -76 92 -154 131 -190 95z m149 -98 c73
-77 109 -141 109 -194 0 -42 -25 -54 -68 -32 -65 34 -182 197 -182 253 0 26
19 43 49 43 19 0 44 -19 92 -70z"/>
<path d="M6062 3828 c-17 -17 -15 -104 4 -146 29 -67 39 -87 44 -92 3 -3 17
-21 30 -40 58 -84 117 -113 140 -70 12 22 9 23 -33 20 -20 -1 -37 9 -65 38
-55 59 -67 75 -83 110 -8 18 -18 32 -22 32 -4 0 -7 26 -5 57 4 69 18 76 69 37
41 -32 85 -91 116 -154 15 -31 22 -38 22 -24 1 38 -49 125 -107 185 -57 58
-86 71 -110 47z"/>
<path d="M5375 3676 c-16 -37 -20 -88 -8 -99 4 -4 12 6 19 23 7 16 17 30 21
30 5 0 60 -65 123 -145 89 -113 116 -142 123 -129 11 19 4 29 -130 196 -143
177 -130 167 -148 124z"/>
<path d="M1103 3563 c-7 -2 -13 -17 -13 -33 0 -34 -23 -45 -79 -35 -24 4 -42
2 -46 -4 -3 -6 -22 -11 -41 -11 -67 0 -95 -26 -114 -107 -14 -58 -5 -108 30
-170 16 -27 16 -32 3 -37 -11 -5 -13 -18 -9 -61 3 -30 9 -80 12 -110 5 -55 6
-55 39 -55 32 0 34 2 37 38 3 34 6 37 36 40 18 2 40 -2 47 -8 11 -9 18 -8 30
4 17 17 53 21 70 8 6 -4 15 -20 20 -37 9 -26 15 -29 40 -27 17 2 32 6 34 8 2
2 0 66 -5 141 l-9 138 -31 3 c-27 3 -33 -1 -42 -27 l-10 -29 -82 1 c-70 0 -83
3 -96 21 -33 47 -9 88 47 85 19 -2 44 3 56 9 33 18 55 14 78 -14 16 -20 26
-24 47 -19 15 4 28 12 31 18 4 14 -11 245 -18 265 -4 12 -38 15 -62 5z"/>
<path d="M5136 3434 c-22 -23 -26 -35 -26 -86 0 -62 28 -134 55 -145 8 -3 15
-13 15 -23 0 -24 79 -102 123 -124 51 -23 79 -20 112 14 24 25 28 37 27 81 -1
52 -25 119 -42 119 -6 0 -10 8 -10 18 0 29 -54 98 -107 137 -61 44 -108 47
-147 9z m115 -40 c114 -79 192 -241 142 -296 -22 -24 -48 -23 -86 4 -43 31
-117 105 -117 117 0 5 -9 25 -19 43 -29 50 -35 105 -16 134 20 31 50 30 96 -2z"/>
<path d="M5764 3258 c-30 -14 -44 -50 -44 -110 0 -66 15 -109 62 -180 72 -108
146 -137 192 -75 26 35 26 122 1 182 -21 48 -71 123 -99 148 -17 15 -84 49
-90 46 0 0 -11 -5 -22 -11z m73 -59 c33 -20 97 -106 121 -162 7 -15 12 -47 12
-71 0 -35 -4 -45 -24 -55 -13 -7 -32 -10 -43 -7 -49 16 -132 133 -154 217 -11
41 -10 50 4 73 21 31 39 33 84 5z"/>
<path d="M7098 3228 c-4 -39 -46 -61 -78 -40 -15 9 -25 8 -47 -3 -15 -8 -33
-15 -39 -15 -16 0 -44 34 -44 53 0 23 -16 29 -51 22 l-31 -7 6 -92 c4 -50 10
-112 13 -138 5 -47 7 -48 40 -48 27 0 35 5 44 26 9 25 12 26 61 21 28 -4 56
-3 62 2 17 14 55 -6 66 -34 6 -16 6 -34 0 -50 -8 -22 -15 -25 -48 -24 -22 2
-53 -3 -70 -10 -31 -13 -72 -2 -72 19 0 6 -19 10 -41 10 l-42 0 7 -82 c16
-206 16 -208 40 -208 31 0 54 20 58 50 3 23 7 25 58 27 101 3 163 20 187 50
42 52 43 168 1 239 -15 26 -18 39 -10 42 8 2 12 31 12 90 0 120 -5 132 -46
132 -30 0 -33 -3 -36 -32z"/>
<path d="M4856 3168 c-19 -30 -32 -98 -18 -98 6 0 13 9 17 19 3 11 13 22 21
25 18 7 56 -15 51 -29 -3 -8 74 -129 93 -145 3 -3 17 -21 30 -40 14 -19 32
-44 42 -54 10 -11 18 -23 18 -28 0 -14 30 -9 36 6 5 13 -180 276 -195 276 -3
0 -17 20 -30 45 -26 50 -43 56 -65 23z"/>
<path d="M6236 3111 c-14 -15 -17 -39 -18 -113 -1 -83 2 -100 26 -148 44 -88
94 -133 120 -108 28 28 38 63 39 136 1 68 -3 85 -31 144 -47 98 -98 131 -136
89z m67 -42 c44 -34 87 -137 87 -208 0 -51 -3 -62 -21 -71 -31 -17 -61 9 -98
85 -41 84 -52 167 -26 195 22 25 26 25 58 -1z"/>
<path d="M4570 2944 c-19 -8 -38 -20 -42 -27 -41 -64 -17 -191 52 -272 108
-128 180 -154 245 -90 32 33 35 40 35 95 0 48 -6 70 -35 125 -42 79 -96 140
-147 166 -44 23 -62 23 -108 3z m79 -39 c74 -38 171 -191 171 -269 0 -40 -4
-47 -27 -59 -74 -38 -192 76 -242 232 -15 47 -14 54 10 85 23 29 47 33 88 11z"/>
<path d="M5504 2943 c-22 -51 -31 -103 -18 -114 9 -7 14 -2 19 21 12 53 36 36
115 -82 41 -61 78 -119 82 -130 10 -24 38 -35 48 -18 13 20 -200 340 -226 340
-7 0 -15 -8 -20 -17z"/>
<path d="M1072 2727 c-20 -9 -23 -16 -17 -43 5 -29 0 -39 -32 -75 -21 -23 -53
-48 -70 -56 -18 -7 -33 -19 -33 -25 0 -19 -50 -86 -78 -104 -25 -16 -26 -16
-48 11 -17 21 -26 26 -45 20 -43 -13 -50 -24 -34 -54 7 -15 46 -108 85 -207
39 -98 75 -183 80 -188 5 -5 22 -4 40 4 29 12 31 15 24 56 -6 40 -4 44 19 49
14 4 47 1 74 -5 26 -7 90 -11 141 -10 92 2 93 1 122 -29 23 -26 34 -30 55 -25
15 4 29 12 31 19 8 21 -92 260 -110 263 -10 2 -28 -3 -41 -12 -21 -14 -23 -20
-14 -43 11 -30 -9 -60 -34 -50 -18 7 -81 162 -73 182 8 22 41 18 57 -5 12 -19
18 -20 47 -9 17 6 32 15 32 20 0 11 -78 211 -110 282 -22 49 -30 53 -68 34z"/>
<path d="M4234 2702 c-30 -20 -59 -122 -35 -122 5 0 15 14 23 30 7 17 17 29
23 27 13 -4 154 -208 155 -224 0 -6 4 -13 9 -15 4 -1 20 -22 35 -46 27 -44 51
-51 51 -16 0 23 -225 374 -240 374 -5 0 -15 -4 -21 -8z"/>
<path d="M5232 2693 c-28 -20 -52 -74 -52 -118 0 -114 129 -285 216 -285 45 0
104 57 105 103 2 68 -4 102 -26 151 -59 129 -172 198 -243 149z m87 -38 c40
-20 92 -84 125 -150 35 -73 33 -129 -6 -158 -23 -18 -30 -18 -57 -7 -59 24
-137 133 -157 220 -10 45 -7 60 19 88 24 26 38 27 76 7z"/>
<path d="M5813 2497 l-38 -36 1 -93 c0 -77 4 -100 23 -133 67 -117 127 -131
184 -43 50 77 31 209 -41 287 -53 58 -81 61 -129 18z m101 -47 c38 -46 76
-139 76 -187 0 -14 -9 -38 -21 -54 -27 -38 -66 -39 -100 -1 -24 26 -32 40 -58
105 -17 43 -14 127 6 149 25 28 67 23 97 -12z"/>
<path d="M3898 2484 c-49 -26 -71 -110 -47 -171 48 -119 102 -186 182 -228 60
-32 89 -30 134 9 25 22 28 31 28 83 -1 135 -146 324 -247 323 -13 -1 -35 -8
-50 -16z m91 -45 c73 -41 160 -180 163 -259 2 -39 -2 -53 -17 -64 -26 -20 -44
-20 -80 2 -116 72 -204 263 -148 324 21 23 37 23 82 -3z"/>
<path d="M4885 2380 c-29 -57 -30 -66 -10 -73 9 -4 19 4 27 20 7 15 18 28 23
30 6 2 53 -60 105 -137 107 -160 112 -166 130 -146 14 18 22 4 -108 199 -71
105 -112 157 -124 157 -11 0 -27 -18 -43 -50z"/>
<path d="M6855 2364 c-33 -7 -65 -13 -71 -13 -20 -1 -83 -73 -104 -119 -24
-51 -36 -149 -26 -216 8 -51 58 -119 84 -114 16 3 42 76 42 119 0 14 -9 34
-20 44 -41 37 -14 115 39 115 16 0 34 -7 41 -15 9 -11 22 -14 41 -10 42 9 69
-10 69 -49 0 -37 -23 -63 -65 -75 -23 -6 -30 -16 -41 -56 -20 -77 -19 -83 24
-94 97 -25 101 -25 112 4 5 14 12 46 14 70 3 24 16 64 30 88 22 37 26 56 26
127 0 95 -13 121 -91 176 -44 31 -44 31 -104 18z"/>
<path d="M3564 2258 c-36 -41 -49 -77 -35 -91 10 -9 16 -7 28 11 9 12 21 22
27 22 7 0 56 -65 109 -143 106 -158 122 -176 139 -159 9 9 -20 59 -113 196
-68 102 -127 185 -130 186 -3 0 -14 -10 -25 -22z"/>
<path d="M5511 2174 c-12 -25 -21 -56 -19 -68 3 -19 6 -17 21 12 10 18 24 31
30 29 7 -2 28 -34 48 -71 20 -37 43 -75 51 -85 8 -10 18 -29 21 -42 10 -35 23
-52 36 -45 15 10 14 36 -3 55 -8 9 -23 39 -33 66 -29 81 -96 195 -114 195 -10
0 -26 -19 -38 -46z"/>
<path d="M4557 2172 c-98 -103 37 -362 189 -362 35 0 49 6 78 34 33 30 36 38
36 88 0 172 -209 338 -303 240z m123 -27 c90 -47 174 -233 126 -281 -8 -8 -32
-14 -54 -14 -55 0 -121 60 -162 145 -37 78 -38 117 -5 151 26 26 41 26 95 -1z"/>
<path d="M3255 2088 c-34 -19 -44 -41 -45 -89 0 -61 44 -147 113 -216 84 -87
155 -106 204 -57 23 23 25 30 19 77 -9 67 -61 159 -123 218 -75 72 -124 92
-168 67z m88 -50 c45 -30 67 -55 113 -123 67 -101 77 -160 29 -179 -53 -20
-151 59 -204 165 -61 122 -26 198 62 137z"/>
<path d="M5240 1973 c-51 -20 -104 -147 -70 -168 6 -3 10 -17 10 -31 0 -52 70
-136 125 -150 34 -8 104 33 127 76 21 39 20 129 -3 156 -6 8 -19 29 -28 46
-29 59 -105 92 -161 71z m107 -70 c50 -48 84 -154 62 -194 -39 -73 -124 -59
-169 28 -8 15 -21 34 -29 42 -20 22 -10 130 14 147 35 26 80 17 122 -23z"/>
<path d="M4215 1930 c-14 -22 -25 -46 -25 -55 0 -22 27 -18 40 5 6 11 16 20
23 20 10 0 120 -146 182 -242 18 -29 39 -36 51 -17 11 18 -208 329 -232 329
-7 0 -25 -18 -39 -40z"/>
<path d="M2974 1912 c-31 -20 -46 -92 -19 -92 8 0 15 7 15 15 0 30 30 14 61
-32 18 -27 35 -50 39 -53 3 -3 36 -47 74 -97 38 -51 75 -93 83 -93 7 0 13 3
13 7 0 8 -78 122 -97 141 -8 8 -45 58 -84 113 -39 54 -72 99 -72 99 -1 0 -7
-4 -13 -8z"/>
<path d="M5752 1815 c-12 -9 -33 -35 -47 -59 -45 -77 -30 -224 25 -241 24 -8
59 2 79 23 14 14 13 15 -12 8 -57 -14 -87 31 -87 134 0 43 5 64 21 84 24 31
68 35 92 9 23 -27 39 -100 32 -147 l-6 -41 15 29 c19 34 21 137 4 168 -28 49
-74 62 -116 33z"/>
<path d="M3916 1774 c-42 -21 -55 -43 -56 -92 -1 -118 140 -263 243 -249 86
12 110 80 62 180 -55 116 -180 197 -249 161z m89 -42 c112 -69 187 -233 120
-264 -64 -29 -173 57 -215 169 -35 95 14 144 95 95z"/>
<path d="M2699 1754 c-38 -45 9 -161 103 -254 115 -114 215 -117 194 -5 -8 42
-92 170 -138 212 -68 61 -132 79 -159 47z m141 -73 c133 -135 174 -281 65
-232 -108 48 -238 268 -167 283 32 7 56 -5 102 -51z"/>
<path d="M4882 1717 c-28 -29 -30 -52 -4 -38 19 10 42 -2 42 -21 0 -5 24 -46
53 -91 28 -46 57 -92 63 -103 14 -23 40 -30 47 -12 5 14 -96 186 -130 222 -11
12 -23 31 -27 44 -9 28 -17 28 -44 -1z"/>
<path d="M3578 1569 c-31 -54 -18 -79 20 -38 20 20 20 20 103 -87 129 -164
126 -161 139 -148 9 9 0 27 -37 75 -27 35 -77 101 -112 147 -35 45 -70 82 -79
82 -9 0 -25 -14 -34 -31z"/>
<path d="M4566 1530 c-70 -21 -100 -87 -72 -155 47 -111 153 -173 229 -134 51
26 67 51 67 100 0 76 -53 155 -125 185 -38 16 -56 16 -99 4z m85 -43 c19 -12
48 -44 66 -70 64 -95 51 -157 -31 -157 -71 0 -142 79 -162 179 -5 22 -1 32 21
50 35 27 64 27 106 -2z"/>
<path d="M3325 1453 c-46 -10 -58 -67 -28 -131 9 -21 45 -65 80 -99 51 -51 69
-63 95 -63 l32 0 -45 28 c-103 66 -178 195 -134 232 26 21 74 1 134 -58 63
-62 101 -125 101 -169 1 -27 1 -27 16 -8 20 27 10 67 -33 132 -58 88 -156 149
-218 136z"/>
<path d="M5125 1353 c-56 -30 -75 -62 -75 -126 0 -60 11 -93 39 -114 19 -15
105 -18 96 -3 -3 6 -17 10 -30 10 -54 0 -94 119 -59 179 53 91 166 10 150
-107 -5 -38 -4 -43 9 -32 47 39 39 138 -16 184 -35 30 -71 32 -114 9z"/>
<path d="M3882 1177 c-30 -32 -28 -74 7 -130 42 -65 101 -102 163 -101 61 1
88 23 88 74 0 48 -47 122 -99 155 -55 34 -128 35 -159 2z m116 -11 c85 -45
143 -169 91 -197 -54 -28 -143 30 -184 121 -16 35 -16 44 -5 65 16 29 55 33
98 11z"/>
<path d="M4480 1013 c-14 -3 -37 -14 -52 -25 -24 -16 -28 -26 -28 -67 0 -84
56 -129 140 -112 l45 9 -46 1 c-57 1 -98 39 -106 99 -14 103 112 110 162 9 18
-37 20 -84 3 -90 -10 -4 -10 -6 -1 -6 24 -2 46 47 40 86 -11 68 -81 111 -157
96z"/>
</g>
</svg>
